<mxfile host="app.diagrams.net" agent="Mozilla/5.0 (Windows NT 10.0; Win64; x64) AppleWebKit/537.36 (KHTML, like Gecko) Chrome/141.0.0.0 Safari/537.36" version="28.2.7">
  <diagram name="Page-1" id="IJcXtZQzgUf-zA7BCoBS">
    <mxGraphModel dx="1224" dy="1102" grid="1" gridSize="10" guides="1" tooltips="1" connect="1" arrows="1" fold="1" page="1" pageScale="1" pageWidth="850" pageHeight="1100" math="0" shadow="0">
      <root>
        <mxCell id="0" />
        <mxCell id="1" parent="0" />
        <mxCell id="kEJUKP7YqWDUfxi1mxv1-13" style="edgeStyle=orthogonalEdgeStyle;rounded=0;orthogonalLoop=1;jettySize=auto;html=1;entryX=0;entryY=0.5;entryDx=0;entryDy=0;" parent="1" source="kEJUKP7YqWDUfxi1mxv1-5" target="kEJUKP7YqWDUfxi1mxv1-6" edge="1">
          <mxGeometry relative="1" as="geometry" />
        </mxCell>
        <mxCell id="kEJUKP7YqWDUfxi1mxv1-14" style="edgeStyle=orthogonalEdgeStyle;rounded=0;orthogonalLoop=1;jettySize=auto;html=1;entryX=0;entryY=0.5;entryDx=0;entryDy=0;" parent="1" source="kEJUKP7YqWDUfxi1mxv1-5" target="kEJUKP7YqWDUfxi1mxv1-8" edge="1">
          <mxGeometry relative="1" as="geometry" />
        </mxCell>
        <mxCell id="kEJUKP7YqWDUfxi1mxv1-15" style="edgeStyle=orthogonalEdgeStyle;rounded=0;orthogonalLoop=1;jettySize=auto;html=1;entryX=0;entryY=0.5;entryDx=0;entryDy=0;" parent="1" source="kEJUKP7YqWDUfxi1mxv1-5" target="kEJUKP7YqWDUfxi1mxv1-9" edge="1">
          <mxGeometry relative="1" as="geometry" />
        </mxCell>
        <mxCell id="rktyK6J-hOQXs8hMjS7g-1" style="edgeStyle=orthogonalEdgeStyle;rounded=0;orthogonalLoop=1;jettySize=auto;html=1;entryX=0;entryY=0.5;entryDx=0;entryDy=0;" edge="1" parent="1" source="kEJUKP7YqWDUfxi1mxv1-5" target="kEJUKP7YqWDUfxi1mxv1-10">
          <mxGeometry relative="1" as="geometry" />
        </mxCell>
        <mxCell id="rktyK6J-hOQXs8hMjS7g-2" style="edgeStyle=orthogonalEdgeStyle;rounded=0;orthogonalLoop=1;jettySize=auto;html=1;entryX=0;entryY=0.5;entryDx=0;entryDy=0;" edge="1" parent="1" source="kEJUKP7YqWDUfxi1mxv1-5" target="kEJUKP7YqWDUfxi1mxv1-7">
          <mxGeometry relative="1" as="geometry" />
        </mxCell>
        <mxCell id="kEJUKP7YqWDUfxi1mxv1-5" value="&lt;div style=&quot;box-sizing: border-box; width: 100%; background: rgb(228, 228, 228); padding: 2px;&quot;&gt;jobs&lt;/div&gt;&lt;table style=&quot;width:100%;font-size:1em;&quot; cellpadding=&quot;2&quot; cellspacing=&quot;0&quot;&gt;&lt;tbody&gt;&lt;tr&gt;&lt;td&gt;PK&lt;/td&gt;&lt;td&gt;id&lt;/td&gt;&lt;/tr&gt;&lt;tr&gt;&lt;td&gt;&lt;br&gt;&lt;/td&gt;&lt;td&gt;title&lt;br&gt;description&lt;br&gt;years_of_experience&lt;br&gt;responsibilities&lt;/td&gt;&lt;/tr&gt;&lt;tr&gt;&lt;td&gt;&lt;br&gt;&lt;/td&gt;&lt;td&gt;&lt;br&gt;&lt;/td&gt;&lt;/tr&gt;&lt;/tbody&gt;&lt;/table&gt;" style="verticalAlign=top;align=left;overflow=fill;html=1;whiteSpace=wrap;" parent="1" vertex="1">
          <mxGeometry x="20" y="20" width="180" height="110" as="geometry" />
        </mxCell>
        <mxCell id="kEJUKP7YqWDUfxi1mxv1-6" value="&lt;div style=&quot;box-sizing: border-box; width: 100%; background-image: initial; background-position: initial; background-size: initial; background-repeat: initial; background-attachment: initial; background-origin: initial; background-clip: initial; padding: 2px;&quot;&gt;&lt;span style=&quot;background-color: rgb(228, 228, 228);&quot;&gt;companies&lt;/span&gt;&lt;table style=&quot;background-color: transparent; color: light-dark(rgb(0, 0, 0), rgb(255, 255, 255)); font-size: 1em; width: 100%;&quot; cellpadding=&quot;2&quot; cellspacing=&quot;0&quot;&gt;&lt;tbody&gt;&lt;tr&gt;&lt;td&gt;&lt;br&gt;&lt;/td&gt;&lt;td&gt;company_name&lt;br&gt;company_size&lt;br&gt;company_type&lt;br&gt;company_headquarters&lt;br&gt;website&lt;br&gt;description&lt;/td&gt;&lt;/tr&gt;&lt;tr&gt;&lt;td&gt;&lt;/td&gt;&lt;td&gt;&lt;br&gt;&lt;/td&gt;&lt;/tr&gt;&lt;/tbody&gt;&lt;/table&gt;&lt;/div&gt;" style="verticalAlign=top;align=left;overflow=fill;html=1;whiteSpace=wrap;" parent="1" vertex="1">
          <mxGeometry x="140" y="150" width="180" height="110" as="geometry" />
        </mxCell>
        <mxCell id="kEJUKP7YqWDUfxi1mxv1-7" value="&lt;div style=&quot;box-sizing: border-box; width: 100%; background: rgb(228, 228, 228); padding: 2px;&quot;&gt;jobs_detail&lt;/div&gt;&lt;table style=&quot;width:100%;font-size:1em;&quot; cellpadding=&quot;2&quot; cellspacing=&quot;0&quot;&gt;&lt;tbody&gt;&lt;tr&gt;&lt;td&gt;&lt;br&gt;&lt;/td&gt;&lt;td&gt;employment_type&lt;br&gt;average_salary&lt;br&gt;benefits&lt;br&gt;remote&lt;br&gt;location&lt;br&gt;job_posting_url&lt;br&gt;posting_date&lt;br&gt;closing_date&lt;br&gt;years_of_experience&lt;/td&gt;&lt;/tr&gt;&lt;tr&gt;&lt;td&gt;&lt;/td&gt;&lt;td&gt;&lt;br&gt;&lt;/td&gt;&lt;/tr&gt;&lt;/tbody&gt;&lt;/table&gt;" style="verticalAlign=top;align=left;overflow=fill;html=1;whiteSpace=wrap;" parent="1" vertex="1">
          <mxGeometry x="140" y="520" width="180" height="160" as="geometry" />
        </mxCell>
        <mxCell id="kEJUKP7YqWDUfxi1mxv1-8" value="&lt;div style=&quot;box-sizing: border-box; width: 100%; background: rgb(228, 228, 228); padding: 2px;&quot;&gt;industries&lt;/div&gt;&lt;table style=&quot;width:100%;font-size:1em;&quot; cellpadding=&quot;2&quot; cellspacing=&quot;0&quot;&gt;&lt;tbody&gt;&lt;tr&gt;&lt;td&gt;&lt;br&gt;&lt;/td&gt;&lt;td&gt;name&lt;br&gt;skills&lt;br&gt;top_companies&lt;br&gt;trends&lt;/td&gt;&lt;/tr&gt;&lt;tr&gt;&lt;td&gt;&lt;br&gt;&lt;br&gt;&lt;/td&gt;&lt;td&gt;&lt;br&gt;&lt;/td&gt;&lt;/tr&gt;&lt;/tbody&gt;&lt;/table&gt;" style="verticalAlign=top;align=left;overflow=fill;html=1;whiteSpace=wrap;" parent="1" vertex="1">
          <mxGeometry x="140" y="270" width="180" height="90" as="geometry" />
        </mxCell>
        <mxCell id="kEJUKP7YqWDUfxi1mxv1-9" value="&lt;div style=&quot;box-sizing: border-box; width: 100%; background: rgb(228, 228, 228); padding: 2px;&quot;&gt;education&lt;/div&gt;&lt;table style=&quot;width:100%;font-size:1em;&quot; cellpadding=&quot;2&quot; cellspacing=&quot;0&quot;&gt;&lt;tbody&gt;&lt;tr&gt;&lt;td&gt;&amp;nbsp; level&lt;br&gt;&amp;nbsp; field&lt;/td&gt;&lt;td&gt;&lt;br&gt;&lt;/td&gt;&lt;/tr&gt;&lt;tr&gt;&lt;td&gt;&lt;br&gt;&lt;/td&gt;&lt;td&gt;&lt;br&gt;&lt;/td&gt;&lt;/tr&gt;&lt;tr&gt;&lt;td&gt;&lt;/td&gt;&lt;td&gt;&lt;br&gt;&lt;/td&gt;&lt;/tr&gt;&lt;/tbody&gt;&lt;/table&gt;" style="verticalAlign=top;align=left;overflow=fill;html=1;whiteSpace=wrap;" parent="1" vertex="1">
          <mxGeometry x="140" y="370" width="180" height="60" as="geometry" />
        </mxCell>
        <mxCell id="kEJUKP7YqWDUfxi1mxv1-10" value="&lt;div style=&quot;box-sizing: border-box; width: 100%; background: rgb(228, 228, 228); padding: 2px;&quot;&gt;skills&lt;table align=&quot;left&quot; style=&quot;background-color: transparent; color: light-dark(rgb(0, 0, 0), rgb(255, 255, 255)); font-size: 1em; width: 100%;&quot; cellpadding=&quot;2&quot; cellspacing=&quot;0&quot;&gt;&lt;tbody&gt;&lt;tr&gt;&lt;td&gt;&amp;nbsp; skills_required&lt;/td&gt;&lt;td&gt;&lt;br&gt;&lt;/td&gt;&lt;/tr&gt;&lt;tr&gt;&lt;td&gt;&lt;/td&gt;&lt;td&gt;&lt;br&gt;&lt;/td&gt;&lt;/tr&gt;&lt;/tbody&gt;&lt;/table&gt;&lt;/div&gt;" style="verticalAlign=top;align=left;overflow=fill;html=1;whiteSpace=wrap;" parent="1" vertex="1">
          <mxGeometry x="140" y="450" width="180" height="50" as="geometry" />
        </mxCell>
      </root>
    </mxGraphModel>
  </diagram>
</mxfile>
